<svg xmlns="http://www.w3.org/2000/svg" viewBox="0 0 126.92 54.69"><defs><style>.cls-1{fill:#62c6c1;}.cls-2{fill:#95d4cb;}.cls-3{font-size:34px;}.cls-3,.cls-6{fill:#414042;font-family:GothamPro-Bold, Gotham Pro;font-weight:700;}.cls-4{letter-spacing:-0.01em;}.cls-5{letter-spacing:0em;}.cls-6{font-size:9px;}.cls-7{letter-spacing:-0.01em;}.cls-8{letter-spacing:-0.03em;}.cls-9{letter-spacing:-0.05em;}</style></defs><title>Asset 7</title><g id="Layer_2" data-name="Layer 2"><g id="Layer_1-2" data-name="Layer 1"><polygon class="cls-1" points="24.56 13.67 24.56 22.6 0 41.02 0 32.09 24.56 13.67"/><polygon class="cls-2" points="24.56 27.34 24.56 36.27 8.41 48.38 4.21 51.53 0 54.69 0 45.76 4.21 42.6 24.56 27.34"/><polygon class="cls-1" points="4.21 15.26 4.21 51.53 0 54.69 0 18.42 4.21 15.26"/><polygon class="cls-2" points="4.21 15.26 4.21 24.19 4.21 28.93 4.21 37.86 4.21 42.6 4.21 51.53 8.41 48.38 8.41 39.45 8.41 34.71 8.41 25.78 8.41 21.04 8.41 12.11 4.21 15.26"/><polygon class="cls-1" points="24.56 0 24.56 8.92 4.21 24.19 0 27.34 0 18.42 8.41 12.11 24.56 0"/><text class="cls-3" transform="translate(28.86 33.23)">FLI<tspan class="cls-4" x="54.77" y="0">S</tspan><tspan class="cls-5" x="76.02" y="0">T</tspan></text><text class="cls-6" transform="translate(31.19 43.22)">SMARTER <tspan class="cls-7" x="48.26" y="0">S</tspan><tspan class="cls-8" x="53.88" y="0">T</tspan><tspan x="59.44" y="0">OR</tspan><tspan class="cls-9" x="73.6" y="0">A</tspan><tspan x="80.31" y="0">GE</tspan></text></g></g></svg>